<svg width="66" height="66" viewBox="0 0 66 66" fill="none" xmlns="http://www.w3.org/2000/svg">
<g filter="url(#filter0_d_18_154)">
<rect x="5" y="5" width="56" height="56" rx="10" fill="white" shape-rendering="crispEdges"/>
<path fill-rule="evenodd" clip-rule="evenodd" d="M44.5553 30.2057H20.79C20.238 30.2057 19.79 29.7577 19.79 29.2057C19.79 28.6537 20.238 28.2057 20.79 28.2057H44.5553C45.1073 28.2057 45.5553 28.6537 45.5553 29.2057C45.5553 29.7577 45.1073 30.2057 44.5553 30.2057Z" fill="#8456EC"/>
<path fill-rule="evenodd" clip-rule="evenodd" d="M38.6016 35.4128C38.0496 35.4128 37.5963 34.9648 37.5963 34.4128C37.5963 33.8608 38.0376 33.4128 38.5896 33.4128H38.6016C39.1536 33.4128 39.6016 33.8608 39.6016 34.4128C39.6016 34.9648 39.1536 35.4128 38.6016 35.4128Z" fill="#8456EC"/>
<path fill-rule="evenodd" clip-rule="evenodd" d="M32.6849 35.4128C32.1329 35.4128 31.6796 34.9648 31.6796 34.4128C31.6796 33.8608 32.1209 33.4128 32.6729 33.4128H32.6849C33.2369 33.4128 33.6849 33.8608 33.6849 34.4128C33.6849 34.9648 33.2369 35.4128 32.6849 35.4128Z" fill="#8456EC"/>
<path fill-rule="evenodd" clip-rule="evenodd" d="M26.7558 35.4128C26.2038 35.4128 25.7492 34.9648 25.7492 34.4128C25.7492 33.8608 26.1918 33.4128 26.7438 33.4128H26.7558C27.3078 33.4128 27.7558 33.8608 27.7558 34.4128C27.7558 34.9648 27.3078 35.4128 26.7558 35.4128Z" fill="#8456EC"/>
<path fill-rule="evenodd" clip-rule="evenodd" d="M38.6016 40.5951C38.0496 40.5951 37.5963 40.1471 37.5963 39.5951C37.5963 39.0431 38.0376 38.5951 38.5896 38.5951H38.6016C39.1536 38.5951 39.6016 39.0431 39.6016 39.5951C39.6016 40.1471 39.1536 40.5951 38.6016 40.5951Z" fill="#8456EC"/>
<path fill-rule="evenodd" clip-rule="evenodd" d="M32.6849 40.5951C32.1329 40.5951 31.6796 40.1471 31.6796 39.5951C31.6796 39.0431 32.1209 38.5951 32.6729 38.5951H32.6849C33.2369 38.5951 33.6849 39.0431 33.6849 39.5951C33.6849 40.1471 33.2369 40.5951 32.6849 40.5951Z" fill="#8456EC"/>
<path fill-rule="evenodd" clip-rule="evenodd" d="M26.7558 40.5951C26.2038 40.5951 25.7492 40.1471 25.7492 39.5951C25.7492 39.0431 26.1918 38.5951 26.7438 38.5951H26.7558C27.3078 38.5951 27.7558 39.0431 27.7558 39.5951C27.7558 40.1471 27.3078 40.5951 26.7558 40.5951Z" fill="#8456EC"/>
<path fill-rule="evenodd" clip-rule="evenodd" d="M38.058 24.7213C37.506 24.7213 37.058 24.2733 37.058 23.7213V19.3333C37.058 18.7813 37.506 18.3333 38.058 18.3333C38.61 18.3333 39.058 18.7813 39.058 19.3333V23.7213C39.058 24.2733 38.61 24.7213 38.058 24.7213Z" fill="#8456EC"/>
<path fill-rule="evenodd" clip-rule="evenodd" d="M27.287 24.7213C26.735 24.7213 26.287 24.2733 26.287 23.7213V19.3333C26.287 18.7813 26.735 18.3333 27.287 18.3333C27.839 18.3333 28.287 18.7813 28.287 19.3333V23.7213C28.287 24.2733 27.839 24.7213 27.287 24.7213Z" fill="#8456EC"/>
<mask id="mask0_18_154" style="mask-type:alpha" maskUnits="userSpaceOnUse" x="19" y="20" width="27" height="27">
<path fill-rule="evenodd" clip-rule="evenodd" d="M19.6667 20.4388H45.6667V47H19.6667V20.4388Z" fill="white"/>
</mask>
<g mask="url(#mask0_18_154)">
<path fill-rule="evenodd" clip-rule="evenodd" d="M27.028 22.4388C23.5707 22.4388 21.6667 24.2828 21.6667 27.6308V39.6961C21.6667 43.1175 23.5707 45.0001 27.028 45.0001H38.3053C41.7627 45.0001 43.6667 43.1521 43.6667 39.7975V27.6308C43.672 25.9841 43.2293 24.7041 42.3507 23.8241C41.4467 22.9175 40.0533 22.4388 38.3173 22.4388H27.028ZM38.3053 47.0001H27.028C22.488 47.0001 19.6667 44.2015 19.6667 39.6961V27.6308C19.6667 23.1935 22.488 20.4388 27.028 20.4388H38.3173C40.596 20.4388 42.48 21.1215 43.7667 22.4108C45.016 23.6655 45.6733 25.4695 45.6667 27.6335V39.7975C45.6667 44.2401 42.8453 47.0001 38.3053 47.0001Z" fill="#8456EC"/>
</g>
</g>
<defs>
<filter id="filter0_d_18_154" x="0" y="0" width="66" height="66" filterUnits="userSpaceOnUse" color-interpolation-filters="sRGB">
<feFlood flood-opacity="0" result="BackgroundImageFix"/>
<feColorMatrix in="SourceAlpha" type="matrix" values="0 0 0 0 0 0 0 0 0 0 0 0 0 0 0 0 0 0 127 0" result="hardAlpha"/>
<feOffset/>
<feGaussianBlur stdDeviation="2.5"/>
<feComposite in2="hardAlpha" operator="out"/>
<feColorMatrix type="matrix" values="0 0 0 0 0 0 0 0 0 0 0 0 0 0 0 0 0 0 0.1 0"/>
<feBlend mode="normal" in2="BackgroundImageFix" result="effect1_dropShadow_18_154"/>
<feBlend mode="normal" in="SourceGraphic" in2="effect1_dropShadow_18_154" result="shape"/>
</filter>
</defs>
</svg>
