<svg width="66" height="66" viewBox="0 0 66 66" fill="none" xmlns="http://www.w3.org/2000/svg">
<g filter="url(#filter0_d_18_163)">
<rect x="5" y="5" width="56" height="56" rx="10" fill="white" shape-rendering="crispEdges"/>
<path fill-rule="evenodd" clip-rule="evenodd" d="M33.334 28.3333C32.0473 28.3333 31.0007 29.38 31.0007 30.668C31.0007 31.9547 32.0473 33 33.334 33C34.6207 33 35.6673 31.9547 35.6673 30.668C35.6673 29.38 34.6207 28.3333 33.334 28.3333ZM33.334 35C30.9447 35 29.0007 33.0573 29.0007 30.668C29.0007 28.2773 30.9447 26.3333 33.334 26.3333C35.7233 26.3333 37.6673 28.2773 37.6673 30.668C37.6673 33.0573 35.7233 35 33.334 35Z" fill="#8456EC"/>
<mask id="mask0_18_163" style="mask-type:alpha" maskUnits="userSpaceOnUse" x="22" y="19" width="23" height="27">
<path fill-rule="evenodd" clip-rule="evenodd" d="M22.3333 19.6667H44.3327V45.6667H22.3333V19.6667Z" fill="white"/>
</mask>
<g mask="url(#mask0_18_163)">
<path fill-rule="evenodd" clip-rule="evenodd" d="M33.3327 21.6667C28.37 21.6667 24.3327 25.7427 24.3327 30.7507C24.3327 37.1227 31.8313 43.3307 33.3327 43.6613C34.834 43.3293 42.3327 37.1213 42.3327 30.7507C42.3327 25.7427 38.2953 21.6667 33.3327 21.6667ZM33.3327 45.6667C30.9407 45.6667 22.3327 38.264 22.3327 30.7507C22.3327 24.6387 27.2673 19.6667 33.3327 19.6667C39.398 19.6667 44.3327 24.6387 44.3327 30.7507C44.3327 38.264 35.7247 45.6667 33.3327 45.6667Z" fill="#8456EC"/>
</g>
</g>
<defs>
<filter id="filter0_d_18_163" x="0" y="0" width="66" height="66" filterUnits="userSpaceOnUse" color-interpolation-filters="sRGB">
<feFlood flood-opacity="0" result="BackgroundImageFix"/>
<feColorMatrix in="SourceAlpha" type="matrix" values="0 0 0 0 0 0 0 0 0 0 0 0 0 0 0 0 0 0 127 0" result="hardAlpha"/>
<feOffset/>
<feGaussianBlur stdDeviation="2.5"/>
<feComposite in2="hardAlpha" operator="out"/>
<feColorMatrix type="matrix" values="0 0 0 0 0 0 0 0 0 0 0 0 0 0 0 0 0 0 0.1 0"/>
<feBlend mode="normal" in2="BackgroundImageFix" result="effect1_dropShadow_18_163"/>
<feBlend mode="normal" in="SourceGraphic" in2="effect1_dropShadow_18_163" result="shape"/>
</filter>
</defs>
</svg>
